<?xml version="1.0"?>
<svg xmlns="http://www.w3.org/2000/svg" xmlns:xlink="http://www.w3.org/1999/xlink" xmlns:svgjs="http://svgjs.com/svgjs" version="1.1" width="512" height="512" x="0" y="0" viewBox="0 0 512.028 512.028" style="enable-background:new 0 0 512 512" xml:space="preserve" class=""><g><g xmlns="http://www.w3.org/2000/svg"><g><path d="m512.028 142.949h-30v-45.004h-45.033v-30h75.033z" fill="#ffffff" data-original="#000000" style="" class=""/></g><g><path d="m30 142.949h-30v-75.004h75.034v30h-45.034z" fill="#ffffff" data-original="#000000" style="" class=""/></g><g><path d="m512.028 444.083h-75.033v-30h45.033v-45.003h30z" fill="#ffffff" data-original="#000000" style="" class=""/></g><g><path d="m75.034 444.083h-75.034v-75.003h30v45.003h45.034z" fill="#ffffff" data-original="#000000" style="" class=""/></g><g><path d="m64.264 125.792h30v260.443h-30z" fill="#ffffff" data-original="#000000" style="" class=""/></g><g><path d="m123.179 125.792h30v200.439h-30z" fill="#ffffff" data-original="#000000" style="" class=""/></g><g><path d="m182.095 125.792h30v200.439h-30z" fill="#ffffff" data-original="#000000" style="" class=""/></g><g><path d="m241.01 125.792h30v260.443h-30z" fill="#ffffff" data-original="#000000" style="" class=""/></g><g><path d="m299.926 125.792h30v260.443h-30z" fill="#ffffff" data-original="#000000" style="" class=""/></g><g><path d="m417.757 125.792h30v260.443h-30z" fill="#ffffff" data-original="#000000" style="" class=""/></g><g><path d="m358.841 125.792h30v200.439h-30z" fill="#ffffff" data-original="#000000" style="" class=""/></g><g><path d="m123.179 356.234h30v30.002h-30z" fill="#ffffff" data-original="#000000" style="" class=""/></g><g><path d="m182.095 356.234h30v30.002h-30z" fill="#ffffff" data-original="#000000" style="" class=""/></g><g><path d="m358.841 356.234h30v30.002h-30z" fill="#ffffff" data-original="#000000" style="" class=""/></g></g></g></svg>
